<svg width="14" height="14" viewBox="0 0 14 14" fill="none" xmlns="http://www.w3.org/2000/svg">
<rect x="6" y="4" width="2" height="6" fill="#B3B3B3"/>
<rect x="4" y="8" width="2" height="6" transform="rotate(-90 4 8)" fill="#B3B3B3"/>
<path d="M14 7C14 10.866 10.866 14 7 14C3.13401 14 0 10.866 0 7C0 3.13401 3.13401 0 7 0C10.866 0 14 3.13401 14 7ZM1.34453 7C1.34453 10.1234 3.87657 12.6555 7 12.6555C10.1234 12.6555 12.6555 10.1234 12.6555 7C12.6555 3.87657 10.1234 1.34453 7 1.34453C3.87657 1.34453 1.34453 3.87657 1.34453 7Z" fill="#B3B3B3"/>
</svg>
