<svg width="18" height="18" viewBox="0 0 18 18" fill="none" xmlns="http://www.w3.org/2000/svg">
<path d="M7.99354 0.40091C8.11721 0.274024 8.26504 0.173181 8.42831 0.104327C8.59157 0.0354727 8.76697 0 8.94416 0C9.12135 0 9.29675 0.0354727 9.46001 0.104327C9.62328 0.173181 9.77111 0.274024 9.89479 0.40091L11.7117 2.26166L14.3127 2.23129C14.4897 2.22902 14.6655 2.26221 14.8295 2.3289C14.9936 2.39559 15.1426 2.49443 15.2679 2.6196C15.3932 2.74477 15.4922 2.89374 15.559 3.05774C15.6258 3.22174 15.6592 3.39746 15.657 3.57454L15.6267 6.17666L17.4874 7.99354C17.6143 8.11721 17.7151 8.26504 17.784 8.42831C17.8528 8.59157 17.8883 8.76697 17.8883 8.94416C17.8883 9.12135 17.8528 9.29675 17.784 9.46001C17.7151 9.62328 17.6143 9.77111 17.4874 9.89479L15.6267 11.7117L15.657 14.3127C15.6593 14.4898 15.6261 14.6657 15.5593 14.8298C15.4926 14.9939 15.3936 15.143 15.2683 15.2683C15.143 15.3936 14.9939 15.4926 14.8298 15.5593C14.6657 15.6261 14.4898 15.6593 14.3127 15.657L11.7117 15.6267L9.89479 17.4874C9.77111 17.6143 9.62328 17.7151 9.46001 17.784C9.29675 17.8528 9.12135 17.8883 8.94416 17.8883C8.76697 17.8883 8.59157 17.8528 8.42831 17.784C8.26504 17.7151 8.11721 17.6143 7.99354 17.4874L6.17666 15.6267L3.57566 15.657C3.39849 15.6593 3.22265 15.6261 3.05852 15.5593C2.89439 15.4926 2.74528 15.3936 2.61999 15.2683C2.4947 15.143 2.39576 14.9939 2.329 14.8298C2.26224 14.6657 2.22902 14.4898 2.23129 14.3127L2.26166 11.7117L0.40091 9.89479C0.274024 9.77111 0.173181 9.62328 0.104327 9.46001C0.0354727 9.29675 0 9.12135 0 8.94416C0 8.76697 0.0354727 8.59157 0.104327 8.42831C0.173181 8.26504 0.274024 8.11721 0.40091 7.99354L2.26166 6.17666L2.23129 3.57454C2.22917 3.39746 2.26251 3.22174 2.32933 3.05774C2.39616 2.89374 2.49512 2.74477 2.6204 2.6196C2.74568 2.49443 2.89473 2.39559 3.05879 2.3289C3.22284 2.26221 3.39858 2.22902 3.57566 2.23129L6.17666 2.26166L7.99354 0.40091ZM13.0594 7.22629C13.2085 7.06634 13.2896 6.85479 13.2857 6.6362C13.2819 6.41761 13.1933 6.20905 13.0387 6.05446C12.8841 5.89987 12.6756 5.81132 12.457 5.80746C12.2384 5.80361 12.0269 5.88475 11.8669 6.03379L7.42203 10.4742L6.07091 9.12079C5.99367 9.03789 5.90051 8.9714 5.79702 8.92528C5.69352 8.87917 5.58179 8.85437 5.4685 8.85237C5.35521 8.85037 5.24267 8.87121 5.13761 8.91365C5.03255 8.95608 4.93711 9.01925 4.85699 9.09937C4.77687 9.17949 4.71371 9.27493 4.67127 9.37999C4.62884 9.48505 4.608 9.59758 4.60999 9.71087C4.61199 9.82416 4.63679 9.93589 4.68291 10.0394C4.72902 10.1429 4.79551 10.236 4.87841 10.3133L7.42541 12.8614L13.0594 7.22629Z" fill="#CFEECB"/>
</svg>
