<svg width="12" height="13" viewBox="0 0 12 13" fill="none" xmlns="http://www.w3.org/2000/svg">
<path d="M11.9912 10.1768C11.994 11.3154 11.0714 12.2402 9.93262 12.2402C9.55625 12.2401 9.20484 12.1364 8.90137 11.96C9.25849 11.9286 9.31101 11.4324 9.31836 11.042C9.49189 11.1661 9.70406 11.2402 9.93359 11.2402C10.519 11.24 10.9929 10.7642 10.9912 10.1787L10.9883 8.85938H10.0654C9.77759 8.8594 9.51338 8.96082 9.30762 9.13086C9.28481 8.68694 9.22647 8.34697 9.08008 8.09375C9.37636 7.94411 9.71084 7.85842 10.0654 7.8584H10.9854L10.9775 5.33203L11.9775 5.33008L11.9912 10.1768ZM7.24219 7.47754C8.30733 7.47755 8.82637 7.65491 9.08008 8.09375C8.36555 8.45461 7.87501 9.19465 7.875 10.0498V10.1826C7.8753 10.9425 8.28867 11.6037 8.90137 11.96C8.88962 11.961 8.87764 11.9639 8.86523 11.9639H1.78027C1.35113 11.9639 1 11.6271 1 11.2158V10.4688C1 8.47975 5.1589 7.47754 7.24219 7.47754ZM9.30762 9.13086C9.32259 9.42223 9.32227 9.75839 9.32227 10.1436V10.9238C9.32226 10.9616 9.31913 11.0012 9.31836 11.042C9.05004 10.8501 8.875 10.5366 8.875 10.1816V10.0488C8.8752 9.67946 9.04355 9.34908 9.30762 9.13086ZM7.24219 0C8.96649 7.01982e-05 10.3633 1.33874 10.3633 2.99121C10.3632 4.64358 8.96641 5.98235 7.24219 5.98242C5.5179 5.98242 4.12122 4.64362 4.12109 2.99121C4.12109 1.33869 5.51782 0 7.24219 0Z" fill="white"/>
</svg>
