<svg width="12" height="12" viewBox="0 0 12 12" fill="none" xmlns="http://www.w3.org/2000/svg">
<path d="M6 0.5C7.933 0.5 9.5 2.067 9.5 4V6.73438C9.5 6.99532 9.56785 7.25193 9.69727 7.47852L11.1387 10H0.861328L2.30273 7.47852C2.43215 7.25193 2.5 6.99532 2.5 6.73438V4C2.5 2.067 4.067 0.5 6 0.5Z" fill="white" stroke="white"/>
<path d="M7.20703 11.25C7.16944 11.3498 7.10683 11.4369 7.0127 11.5088C6.83665 11.6432 6.52413 11.75 6 11.75C5.47587 11.75 5.16335 11.6432 4.9873 11.5088C4.89317 11.4369 4.83056 11.3498 4.79297 11.25H7.20703Z" fill="white" stroke="white" stroke-width="0.5"/>
</svg>
