<svg width="15" height="16" viewBox="0 0 15 16" fill="none" xmlns="http://www.w3.org/2000/svg">
<path d="M0 4.89993C0 4.54867 0.184299 4.22316 0.485504 4.04244L6.9855 0.142438C7.30219 -0.0475716 7.69781 -0.0475717 8.0145 0.142438L14.5145 4.04244C14.8157 4.22316 15 4.54867 15 4.89993V14.8337C15 15.386 14.5523 15.8337 14 15.8337H10C9.44772 15.8337 9 15.386 9 14.8337V11.3337C9 10.7815 8.55228 10.3337 8 10.3337H7.5H7C6.44772 10.3337 6 10.7815 6 11.3337V14.8337C6 15.386 5.55228 15.8337 5 15.8337H1C0.447715 15.8337 0 15.386 0 14.8337V4.89993Z" fill="white"/>
</svg>
