<svg width="15" height="16" viewBox="0 0 15 16" fill="none" xmlns="http://www.w3.org/2000/svg">
<path d="M7.24316 0.571045C7.40132 0.476332 7.59868 0.476332 7.75684 0.571045L14.2568 4.47144C14.4074 4.5618 14.5 4.72452 14.5 4.90015V14.8337C14.5 15.1099 14.2761 15.3337 14 15.3337H10C9.72386 15.3337 9.5 15.1099 9.5 14.8337V11.3337C9.5 10.5053 8.82843 9.83374 8 9.83374H7C6.17157 9.83374 5.5 10.5053 5.5 11.3337V14.8337C5.5 15.1099 5.27614 15.3337 5 15.3337H1C0.723858 15.3337 0.5 15.1099 0.5 14.8337V4.90015C0.5 4.72451 0.592562 4.5618 0.743164 4.47144L7.24316 0.571045Z" stroke="#B3B3B3"/>
</svg>
