<svg width="16" height="16" viewBox="0 0 16 16" fill="none" xmlns="http://www.w3.org/2000/svg">
<path d="M8.81341 0.79778C9.06628 0.544855 9.3665 0.344222 9.69692 0.207338C10.0273 0.0704538 10.3815 0 10.7391 0C11.0968 0 11.4509 0.0704538 11.7813 0.207338C12.1117 0.344222 12.412 0.544855 12.6648 0.79778L15.2017 3.33377C15.4548 3.58667 15.6556 3.88696 15.7925 4.21748C15.9295 4.548 16 4.90227 16 5.26004C16 5.61782 15.9295 5.97209 15.7925 6.30261C15.6556 6.63313 15.4548 6.93342 15.2017 7.18631L11.5195 10.8687L10.181 15.8625L5.68982 11.3712L1.26274 15.7985C1.1204 15.9311 0.932141 16.0033 0.737616 15.9999C0.543092 15.9965 0.357493 15.9176 0.219923 15.7801C0.0823516 15.6425 0.00354914 15.4569 0.000116981 15.2624C-0.00331518 15.0678 0.0688909 14.8796 0.201523 14.7372L4.62861 10.31L0.13745 5.8187L5.13018 4.48012L8.81341 0.79778Z" fill="#67C260"/>
</svg>
