<svg width="17" height="16" viewBox="0 0 17 16" fill="none" xmlns="http://www.w3.org/2000/svg">
<path d="M14.4158 7C14.4158 10.866 11.1887 14 7.20792 14C3.2271 14 0 10.866 0 7C0 3.13401 3.2271 0 7.20792 0C11.1887 0 14.4158 3.13401 14.4158 7ZM1.23347 7C1.23347 10.2044 3.90833 12.8021 7.20792 12.8021C10.5075 12.8021 13.1824 10.2044 13.1824 7C13.1824 3.79559 10.5075 1.19789 7.20792 1.19789C3.90833 1.19789 1.23347 3.79559 1.23347 7Z" fill="#B3B3B3"/>
<line x1="0.75" y1="-0.75" x2="4.99148" y2="-0.75" transform="matrix(0.717378 0.696684 -0.717378 0.696684 11.3267 12)" stroke="#B3B3B3" stroke-width="1.5" stroke-linecap="round"/>
</svg>
