<svg width="11" height="13" viewBox="0 0 11 13" fill="none" xmlns="http://www.w3.org/2000/svg">
<path d="M10.9912 10.1768C10.994 11.3154 10.0714 12.2402 8.93262 12.2402C8.55625 12.2401 8.20484 12.1364 7.90137 11.96C8.25849 11.9286 8.31101 11.4324 8.31836 11.042C8.49189 11.1661 8.70406 11.2402 8.93359 11.2402C9.51899 11.24 9.99288 10.7642 9.99121 10.1787L9.98828 8.85938H9.06543C8.77759 8.8594 8.51338 8.96082 8.30762 9.13086C8.28481 8.68694 8.22647 8.34697 8.08008 8.09375C8.37636 7.94411 8.71084 7.85842 9.06543 7.8584H9.98535L9.97754 5.33203L10.9775 5.33008L10.9912 10.1768ZM6.24219 7.47754C7.30733 7.47755 7.82637 7.65491 8.08008 8.09375C7.36555 8.45461 6.87501 9.19465 6.875 10.0498V10.1826C6.8753 10.9425 7.28867 11.6037 7.90137 11.96C7.88962 11.961 7.87764 11.9639 7.86523 11.9639H0.780273C0.351132 11.9639 0 11.6271 0 11.2158V10.4688C0 8.47975 4.1589 7.47754 6.24219 7.47754ZM8.30762 9.13086C8.32259 9.42223 8.32227 9.75839 8.32227 10.1436V10.9238C8.32226 10.9616 8.31913 11.0012 8.31836 11.042C8.05004 10.8501 7.875 10.5366 7.875 10.1816V10.0488C7.8752 9.67946 8.04355 9.34908 8.30762 9.13086ZM6.24219 0C7.96649 7.01982e-05 9.36328 1.33874 9.36328 2.99121C9.36315 4.64358 7.96641 5.98235 6.24219 5.98242C4.5179 5.98242 3.12122 4.64362 3.12109 2.99121C3.12109 1.33869 4.51782 0 6.24219 0Z" fill="white"/>
</svg>
