<svg width="15" height="15" viewBox="0 0 15 15" fill="none" xmlns="http://www.w3.org/2000/svg">
<path d="M7.52053 0.00581638C3.52846 -0.152861 0.164493 2.95458 0.00581521 6.94664C-0.152862 10.9387 2.95524 14.3027 6.94664 14.4614C10.9387 14.62 14.3027 11.5126 14.4614 7.52053C14.6194 3.52846 11.5119 0.163833 7.52053 0.00581638ZM10.5737 10.6028C10.4838 10.7615 10.3086 10.8409 10.138 10.8171C10.0858 10.8098 10.0336 10.7926 9.98466 10.7648C9.02862 10.2207 7.98664 9.86631 6.8878 9.7116C5.78896 9.55689 4.68945 9.61044 3.62036 9.87028C3.38829 9.92648 3.15491 9.78433 3.09871 9.55226C3.04251 9.3202 3.18466 9.08681 3.41672 9.03061C4.59226 8.74499 5.80086 8.68615 7.00813 8.85606C8.2154 9.02598 9.36053 9.4154 10.4124 10.0137C10.6194 10.1321 10.6921 10.3952 10.5744 10.6028H10.5737ZM11.5245 8.704C11.3771 8.97639 11.0359 9.07821 10.7635 8.93077C9.64482 8.32582 8.43358 7.92846 7.1635 7.74995C5.89342 7.57144 4.62003 7.6197 3.37772 7.89276C3.31028 7.9073 3.2435 7.90995 3.17871 7.90069C2.95325 7.86896 2.7602 7.70102 2.70863 7.46499C2.64185 7.16218 2.83358 6.86268 3.13639 6.7959C4.50962 6.49375 5.91722 6.4402 7.3202 6.63722C8.72251 6.83425 10.0614 7.27325 11.2977 7.94234C11.5708 8.08978 11.6719 8.43028 11.5245 8.70334V8.704ZM12.5784 6.56317C12.4395 6.83028 12.1506 6.96846 11.869 6.92879C11.7929 6.91821 11.7182 6.89441 11.6461 6.85739C10.3437 6.1797 8.94069 5.7321 7.47623 5.52648C6.01177 5.32086 4.53937 5.36449 3.10069 5.65672C2.72648 5.73276 2.36218 5.49077 2.28615 5.11722C2.21011 4.74301 2.4521 4.37871 2.82565 4.30268C4.41904 3.97937 6.04813 3.93111 7.66863 4.15854C9.28912 4.38598 10.8415 4.88185 12.2842 5.63226C12.6227 5.80813 12.7542 6.22532 12.5784 6.56383V6.56317Z" fill="white"/>
</svg>
